<?xml version="1.0" encoding="utf-8"?>
<!-- Generator: Adobe Illustrator 26.0.3, SVG Export Plug-In . SVG Version: 6.00 Build 0)  -->
<svg version="1.1" id="Layer_1" xmlns="http://www.w3.org/2000/svg" xmlns:xlink="http://www.w3.org/1999/xlink" x="0px" y="0px"
	 viewBox="0 0 200 40.2" style="enable-background:new 0 0 200 40.2;" xml:space="preserve">
<g>
	<path d="M2,31V9.2h8.4l10.1,13.7h0.1V9.2h7V31h-8L9.1,17.2H9V31H2z"/>
	<path d="M31.4,31V9.2h21.9v4.7H38.7v3.9h13.7v4.5H38.7v3.9h14.6V31H31.4z"/>
	<path d="M54.7,31l9.5-11.4L55.7,9.2h8.7l4,5.9l4-5.9h8.7l-8.5,10.5L82.1,31h-9l-4.7-6.6L63.7,31H54.7z"/>
	<path d="M82.6,14.1V9.2h23.3v4.9h-8v17h-7.3v-17H82.6z"/>
	<path d="M105.9,30.9c-0.6,0-1.1-0.2-1.5-0.5c-0.4-0.4-0.5-0.8-0.5-1.5c0-0.6,0.2-1.1,0.5-1.5c0.4-0.4,0.9-0.6,1.5-0.6
		c0.6,0,1.1,0.2,1.5,0.6c0.4,0.4,0.5,0.9,0.5,1.5c0,0.6-0.2,1.1-0.5,1.5C107,30.8,106.5,30.9,105.9,30.9z"/>
	<path d="M119.6,31c-1.8,0-3.3-0.4-4.5-1.3c-1.2-0.8-1.7-2-1.7-3.4h3.3c0,0.6,0.3,1.1,0.8,1.4c0.5,0.3,1.2,0.5,2.1,0.5h1.3
		c1,0,1.8-0.2,2.3-0.6c0.5-0.4,0.7-0.9,0.7-1.6c0-0.7-0.2-1.2-0.7-1.5c-0.5-0.4-1.2-0.6-2.1-0.8l-2.3-0.4c-3.4-0.5-5.1-2.2-5.1-4.9
		c0-1.6,0.5-2.7,1.5-3.6c1-0.8,2.5-1.2,4.5-1.2h1.2c1.8,0,3.3,0.4,4.4,1.2c1.1,0.8,1.6,1.9,1.6,3.2h-3.3c0-0.5-0.2-0.9-0.7-1.2
		c-0.5-0.3-1.1-0.4-2-0.4h-1.2c-1.8,0-2.8,0.7-2.8,2c0,1.1,0.8,1.8,2.4,2.1l2.3,0.4c1.9,0.3,3.2,0.8,4.1,1.6
		c0.9,0.8,1.3,1.9,1.3,3.4c0,1.6-0.5,2.8-1.6,3.7c-1.1,0.9-2.6,1.3-4.7,1.3H119.6z"/>
	<path d="M139.7,30.7c-1.5,0-2.7-0.4-3.6-1.3c-0.9-0.9-1.3-2-1.3-3.5v-9.1h-4.7v-3h4.7V9.1h3.3v4.7h6.6v3h-6.6v9
		c0,0.5,0.2,1,0.5,1.3c0.3,0.3,0.7,0.5,1.3,0.5h4.6v3H139.7z"/>
	<path d="M154,31c-1.8,0-3.1-0.5-4.1-1.4c-1-0.9-1.5-2.1-1.5-3.7c0-1.6,0.5-2.8,1.6-3.7c1.1-0.9,2.6-1.4,4.5-1.4h4.6v-1.6
		c0-0.9-0.3-1.6-0.9-2.1c-0.6-0.5-1.4-0.7-2.4-0.7c-0.9,0-1.7,0.2-2.3,0.6c-0.6,0.4-1,0.9-1.1,1.5h-3.2c0.1-1,0.4-1.8,1-2.6
		c0.6-0.7,1.4-1.3,2.3-1.7c1-0.4,2.1-0.6,3.3-0.6c2,0,3.6,0.5,4.8,1.5c1.2,1,1.8,2.4,1.8,4.1v11.5h-3.2v-3H159
		c-0.2,1-0.7,1.9-1.6,2.4C156.5,30.7,155.4,31,154,31z M154.9,28.5c1.2,0,2.2-0.3,2.9-0.9c0.8-0.6,1.1-1.4,1.1-2.3v-2.2h-4.5
		c-0.9,0-1.6,0.2-2.1,0.7c-0.5,0.5-0.8,1.1-0.8,1.9c0,0.9,0.3,1.5,0.9,2C153.1,28.3,153.9,28.5,154.9,28.5z"/>
	<path d="M167.3,30.7V13.9h3.2v3.2h0.1c0.2-1.1,0.6-2,1.4-2.6c0.8-0.6,1.8-0.9,3.1-0.9c1.7,0,3.1,0.6,4.2,1.7
		c1.1,1.1,1.6,2.6,1.6,4.6v1.3h-3.4v-1c0-1.2-0.3-2.1-0.9-2.7c-0.6-0.6-1.5-0.9-2.6-0.9c-2.3,0-3.4,1.3-3.4,3.8v10.5H167.3z"/>
	<path d="M193,30.7c-1.5,0-2.7-0.4-3.6-1.3c-0.9-0.9-1.3-2-1.3-3.5v-9.1h-4.7v-3h4.7V9.1h3.3v4.7h6.6v3h-6.6v9c0,0.5,0.2,1,0.5,1.3
		c0.3,0.3,0.7,0.5,1.3,0.5h4.6v3H193z"/>
</g>
</svg>
