<?xml version="1.0" encoding="utf-8"?>
<!-- Generator: Adobe Illustrator 26.0.3, SVG Export Plug-In . SVG Version: 6.00 Build 0)  -->
<svg version="1.1" id="Layer_1" xmlns="http://www.w3.org/2000/svg" xmlns:xlink="http://www.w3.org/1999/xlink" x="0px" y="0px"
	 viewBox="0 0 200 40" style="enable-background:new 0 0 200 40;" xml:space="preserve">
<style type="text/css">
	.st0{fill:#FFFFFF;}
</style>
<g>
	<path class="st0" d="M1.6,30.6V8.8H10l10.1,13.7h0.1V8.8h7v21.9h-8L8.7,16.8H8.7v13.8H1.6z"/>
	<path class="st0" d="M31,30.6V8.8h21.9v4.7H38.3v3.9H52V22H38.3v3.9h14.6v4.7H31z"/>
	<path class="st0" d="M54.4,30.6l9.5-11.4L55.4,8.8H64l4,5.9l4-5.9h8.7l-8.5,10.5l9.5,11.4h-9L68.1,24l-4.7,6.6H54.4z"/>
	<path class="st0" d="M82.3,13.7V8.8h23.3v4.9h-8v17h-7.3v-17H82.3z"/>
	<path class="st0" d="M105.6,30.5c-0.6,0-1.1-0.2-1.5-0.5c-0.4-0.4-0.5-0.8-0.5-1.5c0-0.6,0.2-1.1,0.5-1.5c0.4-0.4,0.9-0.6,1.5-0.6
		c0.6,0,1.1,0.2,1.5,0.6c0.4,0.4,0.5,0.9,0.5,1.5c0,0.6-0.2,1.1-0.5,1.5C106.7,30.4,106.2,30.5,105.6,30.5z"/>
	<path class="st0" d="M119.2,30.6c-1.8,0-3.3-0.4-4.5-1.3c-1.2-0.8-1.7-2-1.7-3.4h3.3c0,0.6,0.3,1.1,0.8,1.4
		c0.5,0.3,1.2,0.5,2.1,0.5h1.3c1,0,1.8-0.2,2.3-0.6c0.5-0.4,0.7-0.9,0.7-1.6c0-0.7-0.2-1.2-0.7-1.5c-0.5-0.4-1.2-0.6-2.1-0.8
		l-2.3-0.4c-3.4-0.5-5.1-2.2-5.1-4.9c0-1.6,0.5-2.7,1.5-3.6c1-0.8,2.5-1.2,4.5-1.2h1.2c1.8,0,3.3,0.4,4.4,1.2
		c1.1,0.8,1.6,1.9,1.6,3.2h-3.3c0-0.5-0.2-0.9-0.7-1.2c-0.5-0.3-1.1-0.4-2-0.4h-1.2c-1.8,0-2.8,0.7-2.8,2c0,1.1,0.8,1.8,2.4,2.1
		l2.3,0.4c1.9,0.3,3.2,0.8,4.1,1.6c0.9,0.8,1.3,1.9,1.3,3.4c0,1.6-0.5,2.8-1.6,3.7c-1.1,0.9-2.6,1.3-4.7,1.3H119.2z"/>
	<path class="st0" d="M139.4,30.3c-1.5,0-2.7-0.4-3.6-1.3c-0.9-0.9-1.3-2-1.3-3.5v-9.1h-4.7v-3h4.7V8.7h3.3v4.7h6.6v3h-6.6v9
		c0,0.5,0.2,1,0.5,1.3c0.3,0.3,0.7,0.5,1.3,0.5h4.6v3H139.4z"/>
	<path class="st0" d="M153.6,30.6c-1.8,0-3.1-0.5-4.1-1.4c-1-0.9-1.5-2.1-1.5-3.7c0-1.6,0.5-2.8,1.6-3.7c1.1-0.9,2.6-1.4,4.5-1.4
		h4.6v-1.6c0-0.9-0.3-1.6-0.9-2.1c-0.6-0.5-1.4-0.7-2.4-0.7c-0.9,0-1.7,0.2-2.3,0.6c-0.6,0.4-1,0.9-1.1,1.5h-3.2
		c0.1-1,0.4-1.8,1-2.6c0.6-0.7,1.4-1.3,2.3-1.7c1-0.4,2.1-0.6,3.3-0.6c2,0,3.6,0.5,4.8,1.5c1.2,1,1.8,2.4,1.8,4.1v11.5h-3.2v-3h-0.1
		c-0.2,1-0.7,1.9-1.6,2.4C156.2,30.3,155,30.6,153.6,30.6z M154.6,28.1c1.2,0,2.2-0.3,2.9-0.9c0.8-0.6,1.1-1.4,1.1-2.3v-2.2h-4.5
		c-0.9,0-1.6,0.2-2.1,0.7c-0.5,0.5-0.8,1.1-0.8,1.9c0,0.9,0.3,1.5,0.9,2C152.7,27.9,153.6,28.1,154.6,28.1z"/>
	<path class="st0" d="M167,30.3V13.5h3.2v3.2h0.1c0.2-1.1,0.6-2,1.4-2.6c0.8-0.6,1.8-0.9,3.1-0.9c1.7,0,3.1,0.6,4.2,1.7
		c1.1,1.1,1.6,2.6,1.6,4.6v1.3h-3.4v-1c0-1.2-0.3-2.1-0.9-2.7c-0.6-0.6-1.5-0.9-2.6-0.9c-2.3,0-3.4,1.3-3.4,3.8v10.5H167z"/>
	<path class="st0" d="M192.7,30.3c-1.5,0-2.7-0.4-3.6-1.3c-0.9-0.9-1.3-2-1.3-3.5v-9.1h-4.7v-3h4.7V8.7h3.3v4.7h6.6v3h-6.6v9
		c0,0.5,0.2,1,0.5,1.3c0.3,0.3,0.7,0.5,1.3,0.5h4.6v3H192.7z"/>
</g>
</svg>
